<?xml version="1.0" encoding="UTF-8" standalone="no"?>
<!DOCTYPE svg PUBLIC "-//W3C//DTD SVG 1.1//EN"
 "http://www.w3.org/Graphics/SVG/1.1/DTD/svg11.dtd">
<!-- Generated by graphviz version 2.40.1 (20161225.0304)
 -->
<!-- Title: workflow Pages: 1 -->
<svg width="192pt" height="476pt"
 viewBox="0.00 0.00 191.99 476.00" xmlns="http://www.w3.org/2000/svg" xmlns:xlink="http://www.w3.org/1999/xlink">
<g id="graph0" class="graph" transform="scale(1 1) rotate(0) translate(4 472)">
<title>workflow</title>
<polygon fill="#ffffff" stroke="transparent" points="-4,4 -4,-472 187.9916,-472 187.9916,4 -4,4"/>
<!-- A -->
<g id="node1" class="node">
<title>A</title>
<polygon fill="#e6e6e6" stroke="#000000" points="167.0784,-468 16.9132,-468 16.9132,-432 167.0784,-432 167.0784,-468"/>
<text text-anchor="middle" x="91.9958" y="-445.8" font-family="Helvetica,sans-Serif" font-size="14.00" fill="#000000">Upload historical data</text>
</g>
<!-- B -->
<g id="node2" class="node">
<title>B</title>
<polygon fill="#e6e6e6" stroke="#000000" points="183.9874,-396 .0042,-396 .0042,-360 183.9874,-360 183.9874,-396"/>
<text text-anchor="middle" x="91.9958" y="-373.8" font-family="Helvetica,sans-Serif" font-size="14.00" fill="#000000">Build priors (rMAP / power)</text>
</g>
<!-- A&#45;&gt;B -->
<g id="edge1" class="edge">
<title>A&#45;&gt;B</title>
<path fill="none" stroke="#000000" d="M91.9958,-431.8314C91.9958,-424.131 91.9958,-414.9743 91.9958,-406.4166"/>
<polygon fill="#000000" stroke="#000000" points="95.4959,-406.4132 91.9958,-396.4133 88.4959,-406.4133 95.4959,-406.4132"/>
</g>
<!-- C -->
<g id="node3" class="node">
<title>C</title>
<polygon fill="#e6e6e6" stroke="#000000" points="151.9778,-324 32.0138,-324 32.0138,-288 151.9778,-288 151.9778,-324"/>
<text text-anchor="middle" x="91.9958" y="-301.8" font-family="Helvetica,sans-Serif" font-size="14.00" fill="#000000">Add current data</text>
</g>
<!-- B&#45;&gt;C -->
<g id="edge2" class="edge">
<title>B&#45;&gt;C</title>
<path fill="none" stroke="#000000" d="M91.9958,-359.8314C91.9958,-352.131 91.9958,-342.9743 91.9958,-334.4166"/>
<polygon fill="#000000" stroke="#000000" points="95.4959,-334.4132 91.9958,-324.4133 88.4959,-334.4133 95.4959,-334.4132"/>
</g>
<!-- D -->
<g id="node4" class="node">
<title>D</title>
<polygon fill="#e6e6e6" stroke="#000000" points="168.1333,-252 15.8583,-252 15.8583,-216 168.1333,-216 168.1333,-252"/>
<text text-anchor="middle" x="91.9958" y="-229.8" font-family="Helvetica,sans-Serif" font-size="14.00" fill="#000000">Posterior computation</text>
</g>
<!-- C&#45;&gt;D -->
<g id="edge3" class="edge">
<title>C&#45;&gt;D</title>
<path fill="none" stroke="#000000" d="M91.9958,-287.8314C91.9958,-280.131 91.9958,-270.9743 91.9958,-262.4166"/>
<polygon fill="#000000" stroke="#000000" points="95.4959,-262.4132 91.9958,-252.4133 88.4959,-262.4133 95.4959,-262.4132"/>
</g>
<!-- E -->
<g id="node5" class="node">
<title>E</title>
<polygon fill="#e6e6e6" stroke="#000000" points="149.5451,-180 34.4465,-180 34.4465,-144 149.5451,-144 149.5451,-180"/>
<text text-anchor="middle" x="91.9958" y="-157.8" font-family="Helvetica,sans-Serif" font-size="14.00" fill="#000000">Decision (Delta)</text>
</g>
<!-- D&#45;&gt;E -->
<g id="edge4" class="edge">
<title>D&#45;&gt;E</title>
<path fill="none" stroke="#000000" d="M91.9958,-215.8314C91.9958,-208.131 91.9958,-198.9743 91.9958,-190.4166"/>
<polygon fill="#000000" stroke="#000000" points="95.4959,-190.4132 91.9958,-180.4133 88.4959,-190.4133 95.4959,-190.4132"/>
</g>
<!-- F -->
<g id="node6" class="node">
<title>F</title>
<polygon fill="#e6e6e6" stroke="#000000" points="177.2939,-108 6.6977,-108 6.6977,-72 177.2939,-72 177.2939,-108"/>
<text text-anchor="middle" x="91.9958" y="-85.8" font-family="Helvetica,sans-Serif" font-size="14.00" fill="#000000">Operating characteristics</text>
</g>
<!-- E&#45;&gt;F -->
<g id="edge5" class="edge">
<title>E&#45;&gt;F</title>
<path fill="none" stroke="#000000" d="M91.9958,-143.8314C91.9958,-136.131 91.9958,-126.9743 91.9958,-118.4166"/>
<polygon fill="#000000" stroke="#000000" points="95.4959,-118.4132 91.9958,-108.4133 88.4959,-118.4133 95.4959,-118.4132"/>
</g>
<!-- G -->
<g id="node7" class="node">
<title>G</title>
<polygon fill="#e6e6e6" stroke="#000000" points="149.301,-36 34.6906,-36 34.6906,0 149.301,0 149.301,-36"/>
<text text-anchor="middle" x="91.9958" y="-13.8" font-family="Helvetica,sans-Serif" font-size="14.00" fill="#000000">Generate report</text>
</g>
<!-- F&#45;&gt;G -->
<g id="edge6" class="edge">
<title>F&#45;&gt;G</title>
<path fill="none" stroke="#000000" d="M91.9958,-71.8314C91.9958,-64.131 91.9958,-54.9743 91.9958,-46.4166"/>
<polygon fill="#000000" stroke="#000000" points="95.4959,-46.4132 91.9958,-36.4133 88.4959,-46.4133 95.4959,-46.4132"/>
</g>
</g>
</svg>

